<svg xmlns="http://www.w3.org/2000/svg" viewBox="0 0 400 300" role="img" aria-label="Monitor 27 polegadas QHD">
  <defs>
    <radialGradient id="bg" cx="50%" cy="40%" r="75%"><stop offset="0%" stop-color="#fff"/><stop offset="100%" stop-color="#dde1ee"/></radialGradient>
    <linearGradient id="tela" x1="0" y1="0" x2="1" y2="1"><stop offset="0%" stop-color="#1b1f4a"/><stop offset="45%" stop-color="#4c2fae"/><stop offset="100%" stop-color="#12a5c9"/></linearGradient>
    <linearGradient id="moldura" x1="0" y1="0" x2="0" y2="1"><stop offset="0%" stop-color="#404653"/><stop offset="100%" stop-color="#1c2028"/></linearGradient>
  </defs>
  <rect width="400" height="300" fill="url(#bg)"/>
  <ellipse cx="200" cy="262" rx="94" ry="11" fill="#0b1020" opacity=".16"/>
  <rect x="46" y="52" width="308" height="182" rx="9" fill="url(#moldura)"/>
  <rect x="54" y="60" width="292" height="160" rx="4" fill="url(#tela)"/>
  <g opacity=".22" fill="#fff">
    <rect x="70" y="76" width="120" height="8" rx="4"/>
    <rect x="70" y="94" width="80" height="6" rx="3"/>
    <rect x="70" y="118" width="256" height="52" rx="6"/>
    <rect x="70" y="180" width="60" height="24" rx="5"/>
    <rect x="140" y="180" width="60" height="24" rx="5"/>
  </g>
  <path d="M54 60 L346 60 L54 220 Z" fill="#fff" opacity=".07"/>
  <rect x="176" y="234" width="48" height="20" fill="#2a2f3a"/>
  <rect x="140" y="252" width="120" height="12" rx="6" fill="#363d4a"/>
  <circle cx="200" cy="227" r="2.6" fill="#34d399"/>
</svg>
